<?xml version="1.0" encoding="UTF-8" standalone="no"?>
<!-- Created with Inkscape (http://www.inkscape.org/) -->

<svg
   version="1.1"
   id="svg2"
   xml:space="preserve"
   width="479.452"
   height="435.45999"
   viewBox="0 0 479.452 435.45999"
   sodipodi:docname="nocturnality_stylized_white.svg"
   inkscape:version="1.1.2 (0a00cf5339, 2022-02-04)"
   xmlns:inkscape="http://www.inkscape.org/namespaces/inkscape"
   xmlns:sodipodi="http://sodipodi.sourceforge.net/DTD/sodipodi-0.dtd"
   xmlns="http://www.w3.org/2000/svg"
   xmlns:svg="http://www.w3.org/2000/svg"><defs
     id="defs6"><clipPath
       clipPathUnits="userSpaceOnUse"
       id="clipPath114"><path
         d="M 0,326.595 H 359.589 V 0 H 0 Z"
         id="path112" /></clipPath></defs><sodipodi:namedview
     id="namedview4"
     pagecolor="#ffffff"
     bordercolor="#666666"
     borderopacity="1.0"
     inkscape:pageshadow="2"
     inkscape:pageopacity="0.0"
     inkscape:pagecheckerboard="0"
     showgrid="false"
     inkscape:zoom="10.158591"
     inkscape:cx="302.74867"
     inkscape:cy="172.46486"
     inkscape:window-width="3840"
     inkscape:window-height="2123"
     inkscape:window-x="0"
     inkscape:window-y="0"
     inkscape:window-maximized="1"
     inkscape:current-layer="g8" /><g
     id="g8"
     inkscape:groupmode="layer"
     inkscape:label="nocturnality_stylized"
     transform="matrix(1.3333333,0,0,-1.3333333,0,435.46)"><g
       id="g12"
       transform="translate(140.5063,160.4881)"><path
         d="m 0,0 -3.93,-0.66 -3.93,-0.67 -3.92,-0.67 -3.93,-0.67 0.67,-3.36 0.86,-3.31 1.05,-3.25 1.23,-3.2 1.42,-3.11 1.59,-3.03 1.76,-2.93 1.92,-2.83 2.09,-2.71 2.23,-2.59 2.39,-2.46 2.51,-2.32 2.65,-2.17 2.76,-2.01 2.88,-1.85 2.98,-1.69 3.07,-1.51 3.15,-1.34 3.22,-1.15 3.28,-0.96 3.34,-0.78 3.37,-0.58 3.4,-0.39 3.41,-0.2 h 3.42 l 3.42,0.2 3.4,0.39 3.37,0.59 3.33,0.78 3.28,0.96 3.23,1.16 3.15,1.33 -1.66,3.62 -1.66,3.63 -1.66,3.62 -1.66,3.62 -3.23,-1.32 -3.33,-1.07 -3.39,-0.8 -3.45,-0.52 -3.49,-0.25 -3.49,0.03 -3.47,0.31 -3.45,0.58 -3.38,0.86 -3.31,1.12 -3.2,1.38 -3.09,1.63 -2.94,1.87 -2.79,2.1 -2.61,2.32 -2.42,2.51 -2.21,2.7 -1.99,2.87 -1.76,3.02 -1.51,3.15 -1.25,3.25 -1,3.35 z"
         style="fill:#ff580f;fill-opacity:1;fill-rule:nonzero;stroke:none"
         id="path14" /></g><g
       id="g16"
       transform="translate(183.7263,211.6881)"><path
         d="m 0,0 v 3.98 3.99 3.98 3.99 l -3.46,-0.1 -3.46,-0.3 -3.43,-0.5 -3.39,-0.7 -3.35,-0.9 -3.29,-1.08 -3.22,-1.28 -3.15,-1.46 -3.05,-1.64 -2.95,-1.81 -2.84,-1.98 -2.73,-2.15 -2.59,-2.29 -2.46,-2.45 -2.31,-2.58 -2.16,-2.71 -1.99,-2.83 -1.83,-2.95 -1.66,-3.04 -1.48,-3.14 -1.29,-3.21 -1.1,-3.29 -0.92,-3.34 -0.71,-3.39 -0.52,-3.43 -0.32,-3.45 -0.12,-3.46 0.08,-3.46 0.28,-3.46 0.49,-3.43 3.93,0.67 3.92,0.67 3.93,0.67 3.93,0.66 -0.44,3.44 -0.18,3.46 0.1,3.46 0.38,3.45 0.64,3.4 0.91,3.35 1.18,3.26 1.42,3.16 1.68,3.03 1.9,2.89 2.13,2.74 2.34,2.56 2.53,2.36 2.71,2.16 2.88,1.93 3.01,1.71 3.15,1.46 3.25,1.2 3.33,0.95 3.4,0.68 3.44,0.41 z"
         style="fill:#ffc00f;fill-opacity:1;fill-rule:nonzero;stroke:none"
         id="path18" /></g><g
       id="g20"
       transform="translate(201.9863,127.9881)"
       style="fill:#ffffff"><path
         d="m 0,0 1.66,-3.62 1.66,-3.62 1.66,-3.63 1.66,-3.62 3.03,1.49 2.94,1.66 2.84,1.83 2.73,1.98 2.62,2.14 2.49,2.27 2.36,2.42 2.22,2.54 2.08,2.67 1.92,2.78 1.76,2.88 1.59,2.98 1.42,3.06 1.25,3.14 1.07,3.2 0.88,3.26 0.71,3.3 0.51,3.34 0.32,3.36 0.13,3.38 -0.05,3.38 -0.25,3.36 -0.44,3.35 -0.62,3.32 -0.82,3.28 -0.99,3.23 -1.18,3.16 -1.36,3.09 -1.52,3.02 -1.7,2.92 -1.85,2.82 -2.02,2.71 -2.16,2.59 -2.3,2.47 -2.45,2.34 -2.56,2.19 -2.69,2.04 -2.8,1.89 -2.91,1.72 -2.99,1.57 -3.08,1.38 -3.15,1.22 -3.22,1.03 -3.27,0.85 -3.31,0.66 -3.34,0.48 -3.37,0.28 -3.37,0.1 V 95.65 91.67 87.68 83.7 l 3.39,-0.13 3.38,-0.4 3.33,-0.65 3.27,-0.91 3.19,-1.16 3.09,-1.41 2.98,-1.63 2.84,-1.87 2.68,-2.08 2.52,-2.28 2.33,-2.47 2.14,-2.64 1.92,-2.8 1.7,-2.93 1.47,-3.07 1.23,-3.16 0.98,-3.26 0.72,-3.31 0.46,-3.37 0.21,-3.39 -0.06,-3.39 -0.32,-3.38 -0.59,-3.35 -0.84,-3.29 -1.09,-3.21 -1.34,-3.13 -1.58,-3 -1.8,-2.88 L 15.93,12.42 13.7,9.86 11.28,7.47 8.69,5.28 5.93,3.3 3.03,1.54 Z"
         style="fill:#ffffff;fill-opacity:1;fill-rule:nonzero;stroke:none"
         id="path22" /></g><g
       id="g24"
       transform="translate(147.7163,103.7081)"><path
         d="M 0,0 V 0.115 L 0.014,0.613 0.042,1.211 0.092,1.665 0.17,1.984 0.29,2.253 0.446,2.492 0.623,2.706 0.828,2.905 1.054,3.1 1.28,3.284 l 0.199,0.17 0.191,0.154 0.205,0.17 0.219,0.179 0.219,0.179 0.198,0.16 0.184,0.144 0.198,0.16 0.22,0.169 0.212,0.17 0.198,0.149 0.177,0.135 0.191,0.149 0.212,0.16 0.212,0.154 0.184,0.14 0.177,0.13 0.184,0.134 0.205,0.15 0.198,0.144 0.184,0.13 0.163,0.114 0.177,0.125 0.198,0.134 0.191,0.135 0.177,0.115 0.155,0.104 0.17,0.115 0.184,0.12 0.184,0.119 0.17,0.105 0.148,0.094 0.163,0.1 0.17,0.105 0.177,0.104 0.155,0.09 0.135,0.085 0.155,0.085 0.163,0.094 0.163,0.09 0.141,0.075 0.135,0.07 0.141,0.074 0.149,0.08 0.148,0.075 0.163,0.075 0.184,0.089 0.149,0.07 0.035,0.015"
         style="fill:none;stroke:#ff580f;stroke-width:1.07;stroke-linecap:round;stroke-linejoin:round;stroke-miterlimit:10;stroke-dasharray:none;stroke-opacity:1"
         id="path26" /></g><text
       transform="matrix(1,0,0,-1,65.6494,229.6284)"
       style="font-variant:normal;font-weight:normal;font-stretch:normal;font-size:11px;font-family:HelveticaNeue;-inkscape-font-specification:HelveticaNeue;writing-mode:lr-tb;fill:#ffc00f;fill-opacity:1;fill-rule:nonzero;stroke:none"
       id="text30"><tspan
         x="0 7.744 13.651 19.150999 22.615999 25.058001 34.441002 40.348 43.405998 52.789001 55.230999 61.544998 65.208 71.114998 77.231003 80.695999"
         y="0"
         sodipodi:role="line"
         id="tspan28">Daytime migrants</tspan></text><text
       transform="matrix(1,0,0,-1,65.6494,205.6284)"
       style="font-variant:normal;font-weight:normal;font-stretch:normal;font-size:24px;font-family:HelveticaNeue;-inkscape-font-specification:HelveticaNeue;writing-mode:lr-tb;fill:#ffc00f;fill-opacity:1;fill-rule:nonzero;stroke:none"
       id="text34"><tspan
         x="0 13.344 26.688"
         y="0"
         sodipodi:role="line"
         id="tspan32">29%</tspan></text><text
       transform="matrix(1,0,0,-1,65.6494,190.6284)"
       style="font-variant:normal;font-weight:normal;font-stretch:normal;font-size:11px;font-family:HelveticaNeue;-inkscape-font-specification:HelveticaNeue;writing-mode:lr-tb;fill:#ffc00f;fill-opacity:1;fill-rule:nonzero;stroke:none"
       id="text38"><tspan
         x="0 6.1160002 12.232 18.348 21.406 26.906 33.429001 39.335999 45.243 47.685001 53.591999"
         y="0"
         sodipodi:role="line"
         id="tspan36">104 species</tspan></text><text
       transform="matrix(1,0,0,-1,170.7798,178.6362)"
       style="font-variant:normal;font-weight:normal;font-stretch:normal;font-size:6.5px;font-family:HelveticaNeue;-inkscape-font-specification:HelveticaNeue;writing-mode:lr-tb;fill:#ffffff;fill-opacity:1;fill-rule:nonzero;stroke:none"
       id="text42"><tspan
         x="0 3.9714999 7.5854998 9.75 13.481 17.335501 20.826 22.632999"
         y="0"
         sodipodi:role="line"
         id="tspan40">Europe’s</tspan></text><text
       transform="matrix(1,0,0,-1,153.623,163.6362)"
       style="font-variant:normal;font-weight:bold;font-stretch:normal;font-size:17px;font-family:'Helvetica 55 Roman';-inkscape-font-specification:HelveticaNeue-Bold;writing-mode:lr-tb;fill:#ffffff;fill-opacity:1;fill-rule:nonzero;stroke:none"
       id="text46"><tspan
         x="0 9.4519997 11.798 22.184999 26.570999 30.957001 35.342999 39.729 50.116001"
         y="0"
         sodipodi:role="line"
         id="tspan44">1 billion</tspan></text><text
       transform="matrix(1,0,0,-1,148.2061,154.6367)"
       style="font-variant:normal;font-weight:normal;font-stretch:normal;font-size:6.5px;font-family:HelveticaNeue;-inkscape-font-specification:HelveticaNeue;writing-mode:lr-tb;fill:#ffffff;fill-opacity:1;fill-rule:nonzero;stroke:none"
       id="text50"><tspan
         x="0 5.5444999 6.9875002 10.7185 12.883 16.373501 18.421 19.864 23.478001 27.209 29.016001 32.870499 35.035 38.525501 42.015999 45.870499 47.313499 50.927502 54.658501 56.4655 60.32 61.763 63.927502 67.781998"
         y="0"
         sodipodi:role="line"
         id="tspan48">migrating breeding birds</tspan></text><text
       transform="matrix(1,0,0,-1,269.4097,210.6841)"
       style="font-variant:normal;font-weight:normal;font-stretch:normal;font-size:11px;font-family:HelveticaNeue;-inkscape-font-specification:HelveticaNeue;writing-mode:lr-tb;fill:#ffffff;fill-opacity:1;fill-rule:nonzero;stroke:none"
       id="text56"><tspan
         x="0 7.9419999 10.384 16.698 22.813999 26.278999 29.743999 32.186001 41.569"
         y="0"
         sodipodi:role="line"
         id="tspan52">Nighttime</tspan><tspan
         x="4.6859999 14.069 16.511 22.825001 26.488001 32.395 38.511002 41.976002"
         y="11"
         sodipodi:role="line"
         id="tspan54">migrants</tspan></text><text
       transform="matrix(1,0,0,-1,266.1968,175.6841)"
       style="font-variant:normal;font-weight:normal;font-stretch:normal;font-size:24px;font-family:HelveticaNeue;-inkscape-font-specification:HelveticaNeue;writing-mode:lr-tb;fill:#ffffff;fill-opacity:1;fill-rule:nonzero;stroke:none"
       id="text60"><tspan
         x="0 13.344 26.688"
         y="0"
         sodipodi:role="line"
         id="tspan58">43%</tspan></text><path
       d="m 259.15776,161.59719 h 1.77246 v 6.11767 l -1.92822,-0.38672 v 0.98828 l 1.91748,0.38672 h 1.08496 v -7.10595 h 1.77246 v -0.91309 h -4.61914 z"
       id="path2526"
       style="font-size:11px;font-family:HelveticaNeue;-inkscape-font-specification:HelveticaNeue;fill:#ffffff" /><path
       d="m 267.40608,167.98879 q -0.83789,0 -1.2622,-0.82715 -0.41895,-0.82178 -0.41895,-2.47608 0,-1.64892 0.41895,-2.47607 0.42431,-0.82178 1.2622,-0.82178 0.84326,0 1.26221,0.82178 0.42432,0.82715 0.42432,2.47607 0,1.6543 -0.42432,2.47608 -0.41895,0.82715 -1.26221,0.82715 z m 0,0.85937 q 1.34815,0 2.05713,-1.06885 0.71436,-1.06347 0.71436,-3.09375 0,-2.0249 -0.71436,-3.09375 -0.70898,-1.06347 -2.05713,-1.06347 -1.34814,0 -2.0625,1.06347 -0.70898,1.06885 -0.70898,3.09375 0,2.03028 0.70898,3.09375 0.71436,1.06885 2.0625,1.06885 z"
       id="path2528"
       style="font-size:11px;font-family:HelveticaNeue;-inkscape-font-specification:HelveticaNeue;fill:#ffffff" /><path
       d="m 274.18273,167.75783 -2.73926,-4.28076 h 2.73926 z m -0.28467,0.94531 h 1.36426 v -5.22607 h 1.14404 v -0.90235 h -1.14404 v -1.89062 h -1.07959 v 1.89062 h -3.62012 v 1.04737 z"
       id="path2530"
       style="font-size:11px;font-family:HelveticaNeue;-inkscape-font-specification:HelveticaNeue;fill:#ffffff" /><path
       d="m 284.07108,166.52248 v -0.93457 q -0.41894,0.21484 -0.87012,0.32226 -0.45117,0.10743 -0.93457,0.10743 -0.73584,0 -1.10644,-0.22559 -0.36524,-0.22559 -0.36524,-0.67676 0,-0.34375 0.26319,-0.54248 0.26318,-0.19336 1.0581,-0.3706 l 0.33838,-0.0752 q 1.05274,-0.22558 1.49317,-0.63916 0.4458,-0.4082 0.4458,-1.14404 0,-0.83789 -0.66602,-1.32666 -0.66064,-0.48877 -1.8208,-0.48877 -0.4834,0 -1.00976,0.0967 -0.521,0.0913 -1.10108,0.2793 v 1.0205 q 0.54785,-0.28467 1.07959,-0.42968 0.53174,-0.13965 1.05274,-0.13965 0.69824,0 1.07421,0.23632 0.37598,0.2417 0.37598,0.67676 0,0.40283 -0.27393,0.61768 -0.26855,0.21484 -1.18701,0.41357 l -0.34375,0.0806 q -0.91845,0.19336 -1.32666,0.59082 -0.4082,0.40283 -0.4082,1.10107 0,0.84864 0.60156,1.31055 0.60156,0.46191 1.70801,0.46191 0.54785,0 1.03125,-0.0806 0.4834,-0.0806 0.8916,-0.2417 z"
       id="path2532"
       style="font-size:11px;font-family:HelveticaNeue;-inkscape-font-specification:HelveticaNeue;fill:#ffffff" /><path
       d="m 286.69218,161.58644 v -3.19043 h -0.99366 v 8.30371 h 0.99366 v -0.91308 q 0.31152,0.53711 0.78418,0.79492 0.47802,0.26318 1.13867,0.26318 1.0957,0 1.77783,-0.87011 0.6875,-0.87012 0.6875,-2.28809 0,-1.41797 -0.6875,-2.28808 -0.68213,-0.87012 -1.77783,-0.87012 -0.66065,0 -1.13867,0.25781 -0.47266,0.26318 -0.78418,0.80029 z m 3.3623,2.1001 q 0,1.09033 -0.45117,1.70801 -0.4458,0.62305 -1.22998,0.62305 -0.78418,0 -1.23535,-0.62305 -0.4458,-0.61768 -0.4458,-1.70801 0,-1.09033 0.4458,-1.71338 0.45117,-0.61767 1.23535,-0.61767 0.78418,0 1.22998,0.61767 0.45117,0.62305 0.45117,1.71338 z"
       id="path2534"
       style="font-size:11px;font-family:HelveticaNeue;-inkscape-font-specification:HelveticaNeue;fill:#ffffff" /><path
       d="m 297.40463,163.93898 v -0.4834 h -4.54395 q 0.0645,-1.0205 0.61231,-1.55761 0.55322,-0.53174 1.53613,-0.53174 0.56934,0 1.10108,0.13965 0.53711,0.13965 1.06347,0.41894 v -0.93457 q -0.53174,-0.22558 -1.09033,-0.34375 -0.55859,-0.11816 -1.1333,-0.11816 -1.43945,0 -2.28272,0.83789 -0.83789,0.83789 -0.83789,2.2666 0,1.47705 0.79493,2.3418 0.80029,0.87011 2.1538,0.87011 1.21387,0 1.91749,-0.78418 0.70898,-0.7788 0.70898,-2.12158 z m -0.98828,0.29004 q -0.0107,0.81104 -0.45654,1.29444 -0.44043,0.48339 -1.1709,0.48339 -0.82715,0 -1.32666,-0.46728 -0.49414,-0.46729 -0.56934,-1.31592 z"
       id="path2536"
       style="font-size:11px;font-family:HelveticaNeue;-inkscape-font-specification:HelveticaNeue;fill:#ffffff" /><path
       d="m 302.49522,166.46877 v -0.92383 q -0.41894,0.23096 -0.84326,0.34375 -0.41895,0.11816 -0.84863,0.11816 -0.96143,0 -1.49317,-0.6123 -0.53174,-0.60693 -0.53174,-1.70801 0,-1.10107 0.53174,-1.71338 0.53174,-0.60693 1.49317,-0.60693 0.42968,0 0.84863,0.11279 0.42432,0.11817 0.84326,0.34912 v -0.91308 q -0.41357,-0.19336 -0.85937,-0.29004 -0.44043,-0.0967 -0.93995,-0.0967 -1.35888,0 -2.15918,0.854 -0.80029,0.85401 -0.80029,2.3042 0,1.47168 0.80567,2.31494 0.81103,0.84326 2.21826,0.84326 0.45654,0 0.8916,-0.0967 0.43506,-0.0913 0.84326,-0.27929 z"
       id="path2538"
       style="font-size:11px;font-family:HelveticaNeue;-inkscape-font-specification:HelveticaNeue;fill:#ffffff" /><path
       d="m 304.07312,166.69972 h 0.98828 v -6.01562 h -0.98828 z m 0,2.3418 h 0.98828 v -1.25146 h -0.98828 z"
       id="path2540"
       style="font-size:11px;font-family:HelveticaNeue;-inkscape-font-specification:HelveticaNeue;fill:#ffffff" /><path
       d="m 311.66063,163.93898 v -0.4834 h -4.54394 q 0.0644,-1.0205 0.6123,-1.55761 0.55322,-0.53174 1.53613,-0.53174 0.56934,0 1.10108,0.13965 0.53711,0.13965 1.06347,0.41894 v -0.93457 q -0.53173,-0.22558 -1.09033,-0.34375 -0.55859,-0.11816 -1.1333,-0.11816 -1.43945,0 -2.28271,0.83789 -0.83789,0.83789 -0.83789,2.2666 0,1.47705 0.79492,2.3418 0.80029,0.87011 2.15381,0.87011 1.21386,0 1.91748,-0.78418 0.70898,-0.7788 0.70898,-2.12158 z m -0.98828,0.29004 q -0.0107,0.81104 -0.45654,1.29444 -0.44043,0.48339 -1.1709,0.48339 -0.82715,0 -1.32666,-0.46728 -0.49414,-0.46729 -0.56934,-1.31592 z"
       id="path2542"
       style="font-size:11px;font-family:HelveticaNeue;-inkscape-font-specification:HelveticaNeue;fill:#ffffff" /><path
       d="m 316.25708,166.52248 v -0.93457 q -0.41894,0.21484 -0.87012,0.32226 -0.45117,0.10743 -0.93457,0.10743 -0.73584,0 -1.10644,-0.22559 -0.36524,-0.22559 -0.36524,-0.67676 0,-0.34375 0.26319,-0.54248 0.26318,-0.19336 1.0581,-0.3706 l 0.33838,-0.0752 q 1.05274,-0.22558 1.49317,-0.63916 0.4458,-0.4082 0.4458,-1.14404 0,-0.83789 -0.66602,-1.32666 -0.66064,-0.48877 -1.8208,-0.48877 -0.4834,0 -1.00977,0.0967 -0.52099,0.0913 -1.10107,0.2793 v 1.0205 q 0.54785,-0.28467 1.07959,-0.42968 0.53174,-0.13965 1.05273,-0.13965 0.69825,0 1.07422,0.23632 0.37598,0.2417 0.37598,0.67676 0,0.40283 -0.27393,0.61768 -0.26855,0.21484 -1.18701,0.41357 l -0.34375,0.0806 q -0.91845,0.19336 -1.32666,0.59082 -0.4082,0.40283 -0.4082,1.10107 0,0.84864 0.60156,1.31055 0.60156,0.46191 1.70801,0.46191 0.54785,0 1.03125,-0.0806 0.4834,-0.0806 0.8916,-0.2417 z"
       id="path2544"
       style="font-size:11px;font-family:HelveticaNeue;-inkscape-font-specification:HelveticaNeue;fill:#ffffff" /><path
       d="m 117.37605,108.76569 v -2.93799 h 1.74023 q 0.87549,0 1.29444,0.35986 0.42431,0.36524 0.42431,1.11182 0,0.75195 -0.42431,1.10644 -0.41895,0.35987 -1.29444,0.35987 z m 0,3.29785 v -2.41699 h 1.60596 q 0.79492,0 1.18164,0.29541 0.39209,0.30078 0.39209,0.91308 0,0.60694 -0.39209,0.90772 -0.38672,0.30078 -1.18164,0.30078 z m -1.08496,0.8916 h 2.77148 q 1.24073,0 1.91211,-0.51562 0.67139,-0.51563 0.67139,-1.46631 0,-0.73584 -0.34375,-1.1709 -0.34375,-0.43506 -1.00977,-0.54248 0.8003,-0.17188 1.24073,-0.71973 0.4458,-0.54248 0.4458,-1.35888 0,-1.07422 -0.73047,-1.65967 -0.73047,-0.58545 -2.07861,-0.58545 h -2.87891 z"
       id="path2546"
       style="font-size:11px;font-family:HelveticaNeue;-inkscape-font-specification:HelveticaNeue;fill:#ff580f" /><path
       d="m 126.11418,110.25885 q -0.79492,0 -1.25684,-0.62304 -0.46191,-0.61768 -0.46191,-1.69727 0,-1.07959 0.45654,-1.70264 0.46192,-0.61767 1.26221,-0.61767 0.78955,0 1.25146,0.62305 0.46192,0.62304 0.46192,1.69726 0,1.06885 -0.46192,1.6919 -0.46191,0.62841 -1.25146,0.62841 z m 0,0.83789 q 1.28906,0 2.0249,-0.83789 0.73584,-0.83789 0.73584,-2.32031 0,-1.47705 -0.73584,-2.32031 -0.73584,-0.83789 -2.0249,-0.83789 -1.29443,0 -2.03027,0.83789 -0.73047,0.84326 -0.73047,2.32031 0,1.48242 0.73047,2.32031 0.73584,0.83789 2.03027,0.83789 z"
       id="path2548"
       style="font-size:11px;font-family:HelveticaNeue;-inkscape-font-specification:HelveticaNeue;fill:#ff580f" /><path
       d="m 131.07466,112.65973 v -1.70801 h 2.03564 v -0.76806 h -2.03564 v -3.26563 q 0,-0.73584 0.19873,-0.94531 0.2041,-0.20947 0.82178,-0.20947 h 1.01513 v -0.82715 h -1.01513 q -1.14405,0 -1.57911,0.42431 -0.43505,0.42969 -0.43505,1.55762 v 3.26563 h -0.7251 v 0.76806 h 0.7251 v 1.70801 z"
       id="path2550"
       style="font-size:11px;font-family:HelveticaNeue;-inkscape-font-specification:HelveticaNeue;fill:#ff580f" /><path
       d="m 138.56261,108.56696 v -3.63086 h -0.98828 v 3.59863 q 0,0.85401 -0.33301,1.27832 -0.33301,0.42432 -0.99902,0.42432 -0.80029,0 -1.26221,-0.51026 -0.46191,-0.51025 -0.46191,-1.39111 v -3.3999 h -0.99365 v 8.35742 h 0.99365 v -3.27637 q 0.35449,0.54248 0.83252,0.81104 0.4834,0.26855 1.11181,0.26855 1.03663,0 1.56836,-0.64453 0.53174,-0.63916 0.53174,-1.88525 z"
       id="path2552"
       style="font-size:11px;font-family:HelveticaNeue;-inkscape-font-specification:HelveticaNeue;fill:#ff580f" /><text
       transform="matrix(1,0,0,-1,115.2085,80.9341)"
       style="font-variant:normal;font-weight:normal;font-stretch:normal;font-size:24px;font-family:HelveticaNeue;-inkscape-font-specification:HelveticaNeue;writing-mode:lr-tb;fill:#ff580f;fill-opacity:1;fill-rule:nonzero;stroke:none"
       id="text70"><tspan
         x="0 13.344 26.688"
         y="0"
         sodipodi:role="line"
         id="tspan68">28%</tspan></text><text
       transform="matrix(1,0,0,-1,115.2085,65.9341)"
       style="font-variant:normal;font-weight:normal;font-stretch:normal;font-size:11px;font-family:HelveticaNeue;-inkscape-font-specification:HelveticaNeue;writing-mode:lr-tb;fill:#ff580f;fill-opacity:1;fill-rule:nonzero;stroke:none"
       id="text74"><tspan
         x="0 6.1160002 12.232 18.348 21.406 26.906 33.429001 39.335999 45.243 47.685001 53.591999"
         y="0"
         sodipodi:role="line"
         id="tspan72">126 species</tspan></text><g
       id="g76"
       transform="translate(129.6717,223.2179)"><path
         d="M 0,0 V -2"
         style="fill:none;stroke:#ffc00f;stroke-width:2;stroke-linecap:round;stroke-linejoin:round;stroke-miterlimit:4;stroke-dasharray:none;stroke-opacity:1"
         id="path78" /></g><g
       id="g80"
       transform="translate(129.6717,205.2179)"><path
         d="M 0,0 V -2"
         style="fill:none;stroke:#ffc00f;stroke-width:2;stroke-linecap:round;stroke-linejoin:round;stroke-miterlimit:4;stroke-dasharray:none;stroke-opacity:1"
         id="path82" /></g><g
       id="g84"
       transform="translate(122.6017,220.2879)"><path
         d="M 0,0 1.41,-1.41"
         style="fill:none;stroke:#ffc00f;stroke-width:2;stroke-linecap:round;stroke-linejoin:round;stroke-miterlimit:4;stroke-dasharray:none;stroke-opacity:1"
         id="path86" /></g><g
       id="g88"
       transform="translate(135.3317,207.5579)"><path
         d="M 0,0 1.41,-1.41"
         style="fill:none;stroke:#ffc00f;stroke-width:2;stroke-linecap:round;stroke-linejoin:round;stroke-miterlimit:4;stroke-dasharray:none;stroke-opacity:1"
         id="path90" /></g><g
       id="g92"
       transform="translate(119.6717,213.2179)"><path
         d="M 0,0 H 2"
         style="fill:none;stroke:#ffc00f;stroke-width:2;stroke-linecap:round;stroke-linejoin:round;stroke-miterlimit:4;stroke-dasharray:none;stroke-opacity:1"
         id="path94" /></g><g
       id="g96"
       transform="translate(137.6717,213.2179)"><path
         d="M 0,0 H 2"
         style="fill:none;stroke:#ffc00f;stroke-width:2;stroke-linecap:round;stroke-linejoin:round;stroke-miterlimit:4;stroke-dasharray:none;stroke-opacity:1"
         id="path98" /></g><g
       id="g100"
       transform="translate(124.0117,207.5579)"><path
         d="M 0,0 -1.41,-1.41"
         style="fill:none;stroke:#ffc00f;stroke-width:2;stroke-linecap:round;stroke-linejoin:round;stroke-miterlimit:4;stroke-dasharray:none;stroke-opacity:1"
         id="path102" /></g><g
       id="g104"
       transform="translate(136.7417,220.2879)"><path
         d="M 0,0 -1.41,-1.41"
         style="fill:none;stroke:#ffc00f;stroke-width:2;stroke-linecap:round;stroke-linejoin:round;stroke-miterlimit:4;stroke-dasharray:none;stroke-opacity:1"
         id="path106" /></g><g
       id="g116"
       transform="translate(129.6717,217.2179)"
       style="fill:none"><path
         d="m 0,0 c 2.209,0 4,-1.791 4,-4 0,-2.209 -1.791,-4 -4,-4 -2.209,0 -4,1.791 -4,4 0,2.209 1.791,4 4,4 z"
         style="fill:none;stroke:#ffc00f;stroke-width:2;stroke-linecap:round;stroke-linejoin:round;stroke-miterlimit:4;stroke-dasharray:none;stroke-opacity:1"
         id="path118" /></g><g
       id="g120"
       transform="translate(251.3315,193.3796)"
       style="fill:none;stroke:#ffffff;stroke-opacity:1"><path
         d="m 0,0 c -2.943,-2.943 -2.943,-7.714 0,-10.657 2.943,-2.942 7.714,-2.942 10.657,0 0,-5.885 -4.772,-10.656 -10.657,-10.656 -5.885,0 -10.657,4.771 -10.657,10.656 C -10.657,-4.771 -5.885,0 0,0 Z"
         style="fill:none;stroke:#ffffff;stroke-width:2;stroke-linecap:butt;stroke-linejoin:miter;stroke-miterlimit:10;stroke-dasharray:none;stroke-opacity:1"
         id="path122" /></g><g
       id="g124"
       transform="translate(259.6199,193.3796)"
       style="fill:#ffffff;stroke:#ffffff;stroke-opacity:1"><path
         d="M 0,0 V -4.736"
         style="fill:#ffffff;stroke:#ffffff;stroke-width:1;stroke-linecap:butt;stroke-linejoin:miter;stroke-miterlimit:10;stroke-dasharray:none;stroke-opacity:1"
         id="path126" /></g><g
       id="g128"
       transform="translate(261.988,191.0115)"
       style="fill:#ffffff;stroke:#ffffff;stroke-opacity:1"><path
         d="M 0,0 H -4.736"
         style="fill:#ffffff;stroke:#ffffff;stroke-width:1;stroke-linecap:butt;stroke-linejoin:miter;stroke-miterlimit:10;stroke-dasharray:none;stroke-opacity:1"
         id="path130" /></g></g></svg>
